<svg width="35" height="28" viewBox="0 0 35 28" fill="none" xmlns="http://www.w3.org/2000/svg">
<path d="M32.0773 0H2.92274C1.30642 0 0 1.30642 0 2.91667V24.3055C0 25.9158 1.30642 27.2222 2.92274 27.2222H32.0773C33.6936 27.2222 35 25.9158 35 24.3055V2.91667C35 1.30642 33.6936 0 32.0773 0ZM3.28733 2.91667H31.7127C31.9132 2.91667 32.0773 3.08073 32.0773 3.28125V5.83333H2.92274V3.28125C2.92274 3.08073 3.08681 2.91667 3.28733 2.91667ZM31.7127 24.3055H3.28733C3.08681 24.3055 2.92274 24.1415 2.92274 23.941V13.6111H32.0773V23.941C32.0773 24.1415 31.9132 24.3055 31.7127 24.3055ZM11.6667 18.2292V20.6597C11.6667 21.0608 11.3385 21.3889 10.9375 21.3889H6.5625C6.16146 21.3889 5.83333 21.0608 5.83333 20.6597V18.2292C5.83333 17.8281 6.16146 17.5 6.5625 17.5H10.9375C11.3385 17.5 11.6667 17.8281 11.6667 18.2292ZM23.3333 18.2292V20.6597C23.3333 21.0608 23.0052 21.3889 22.6042 21.3889H14.3403C13.9392 21.3889 13.6111 21.0608 13.6111 20.6597V18.2292C13.6111 17.8281 13.9392 17.5 14.3403 17.5H22.6042C23.0052 17.5 23.3333 17.8281 23.3333 18.2292Z" fill="#FF5B00"/>
</svg>
