<svg width="89" height="72" viewBox="0 0 89 72" fill="none" xmlns="http://www.w3.org/2000/svg">
<path d="M79.9887 45.2927C80.0166 45.0285 80.1 44.7782 80.1 44.5139C80.1 39.605 76.1089 35.6139 71.2 35.6139C69.4478 35.6139 67.8347 36.1424 66.458 37.0046C64.0105 31.6089 58.6009 27.8264 52.2875 27.8264C43.6934 27.8264 36.7125 34.7935 36.7125 43.4014C36.7125 43.8186 36.8098 44.208 36.8377 44.6113C29.9402 45.1258 24.475 50.8274 24.475 57.8639C24.475 65.2343 30.4547 71.2139 37.825 71.2139H75.65C83.0203 71.2139 89 65.2343 89 57.8639C89 52.0094 85.2175 47.1005 79.9887 45.2927ZM20.1362 42.1499C14.0592 36.0728 14.0592 26.1994 20.1362 20.1363C26.2133 14.0592 36.0867 14.0592 42.1637 20.1363C43.5127 21.4852 44.5139 23.0427 45.2648 24.6836C46.6277 24.1691 48.06 23.8492 49.5341 23.6406L53.6781 11.278C54.2344 9.62313 52.663 8.06563 51.0081 8.60797L38.7984 12.6825L33.0273 1.16813C32.2625 -0.389375 30.0375 -0.389375 29.2587 1.16813L23.5016 12.6825L11.278 8.60797C9.63703 8.06563 8.06563 9.63704 8.60797 11.278L12.6825 23.4877L1.16812 29.2588C-0.389375 30.0375 -0.389375 32.2486 1.16812 33.0274L12.6825 38.7846L8.60797 50.9943C8.05172 52.6491 9.62312 54.2066 11.278 53.6642L21.8606 50.146C22.7089 48.4216 23.8075 46.8502 25.1425 45.4874C23.3208 44.7364 21.6103 43.6239 20.1362 42.1499ZM19.4688 31.1361C19.4688 36.8099 23.5433 41.538 28.9111 42.581C30.0236 41.9274 31.1778 41.3572 32.4155 40.9539C33.1664 34.7935 36.7264 29.4813 41.7883 26.3524C39.9527 22.3056 35.8781 19.4688 31.15 19.4688C24.7114 19.4688 19.4688 24.6975 19.4688 31.1361Z" fill="#FF8C42"/>
</svg>
