<svg width="19" height="18" viewBox="0 0 19 18" fill="none" xmlns="http://www.w3.org/2000/svg">
<path d="M0.258375 15.4332L3.95853 11.9575C4.12552 11.8006 4.35189 11.7134 4.58939 11.7134H5.19427C4.17005 10.4827 3.56146 8.93509 3.56146 7.25113C3.56146 3.24554 7.0167 0 11.2805 0C15.5444 0 19 3.24554 19 7.25113C19 11.2567 15.5448 14.5023 11.2805 14.5023C9.48817 14.5023 7.84015 13.9305 6.5302 12.9682V13.5365C6.5302 13.7597 6.43743 13.9723 6.27044 14.1292L2.57028 17.6049C2.22145 17.9326 1.65739 17.9326 1.31228 17.6049L0.262086 16.6182C-0.0867402 16.2905 -0.0867405 15.7609 0.258375 15.4332ZM11.2805 12.2709C14.2322 12.2709 16.6243 10.0277 16.6243 7.25113C16.6243 4.47835 14.2363 2.23133 11.2805 2.23133C8.32888 2.23133 5.93682 4.47452 5.93682 7.25113C5.93682 10.0239 8.3248 12.2709 11.2805 12.2709ZM11.2798 3.90483C12.7931 3.90483 14.0199 5.05711 14.0199 6.47888C14.0199 7.62802 12.2291 9.72303 11.5429 10.4834C11.5107 10.5196 11.4705 10.5487 11.425 10.5687C11.3796 10.5886 11.33 10.599 11.2798 10.599C11.2296 10.599 11.18 10.5886 11.1346 10.5687C11.0891 10.5487 11.0489 10.5196 11.0167 10.4834C10.3306 9.72303 8.53966 7.62837 8.53966 6.47888C8.53966 5.05711 9.76649 3.90483 11.2798 3.90483V3.90483ZM11.2798 7.25183C11.7719 7.25183 12.1704 6.87704 12.1704 6.41508C12.1704 5.95278 11.7715 5.57833 11.2798 5.57833C10.7881 5.57833 10.3892 5.95278 10.3892 6.41508C10.3892 6.87704 10.7881 7.25183 11.2798 7.25183Z" fill="white"/>
</svg>
