<svg width="101" height="90" viewBox="0 0 101 90" fill="none" xmlns="http://www.w3.org/2000/svg">
<path d="M60.1052 61.841C61.1046 60.1578 61.7183 58.2115 61.7183 56.1075C61.7183 49.9182 56.6861 44.886 50.4968 44.886C47.481 44.886 44.7457 46.0958 42.7294 48.0245C39.8714 42.8346 34.4009 39.2753 28.0538 39.2753C18.7609 39.2753 11.2215 46.8147 11.2215 56.1075C11.2215 56.4582 11.3092 56.7738 11.3267 57.1069C4.7516 59.4038 0 65.5932 0 72.9398C0 82.2326 7.53945 89.772 16.8323 89.772H58.9129C66.6627 89.772 72.9398 83.495 72.9398 75.7451C72.9398 68.3986 67.2764 62.4547 60.1052 61.841ZM99.1174 52.3203C82.7936 55.4237 67.8199 42.9047 67.8199 26.4231C67.8199 16.9199 72.9047 8.18819 81.163 3.48919C82.443 2.77031 82.1098 0.841613 80.6721 0.561075C78.6206 0.19287 76.5692 0 74.5178 0C55.9497 0 40.8708 15.0614 40.8708 33.6645C40.8708 35.1549 40.9935 36.6102 41.1864 38.0479C42.2209 38.8018 43.2203 39.6084 44.1145 40.5377C46.1134 39.7136 48.27 39.2753 50.4968 39.2753C59.772 39.2753 67.329 46.8322 67.329 56.1075C67.329 56.7387 67.2939 57.3699 67.2238 57.9836C71.3617 59.8772 74.6581 63.156 76.6043 67.2063C86.1426 66.6101 94.7866 62.0689 100.643 54.8626C101.572 53.7229 100.555 52.0397 99.1174 52.3203Z" fill="#FF5B00"/>
</svg>
