<svg width="46" height="46" viewBox="0 0 46 46" fill="none" xmlns="http://www.w3.org/2000/svg">
<path d="M31.7275 0.0135729C33.1794 -0.121349 34.5307 0.760968 34.9017 2.15457L36.2324 7.14933C19.3753 7.63665 7.97195 18.7428 7.25857 35.2876L2.1427 33.8869C0.730305 33.4999 -0.147499 32.14 0.0205154 30.7003C1.89651 14.6535 15.3834 1.53766 31.7275 0.0135729ZM36.9808 9.95517L45.952 43.6403C46.0172 43.885 46.016 44.1424 45.9484 44.3865C45.8807 44.6306 45.7492 44.8527 45.5669 45.0305C45.3847 45.2083 45.1582 45.3355 44.9103 45.3992C44.6624 45.4629 44.4019 45.4609 44.1551 45.3934L10.1031 36.0643C10.4868 20.5403 21.1615 10.1327 36.9808 9.95872V9.95517ZM34.501 36.9262C35.0697 36.9262 35.6255 36.7596 36.0983 36.4475C36.5711 36.1354 36.9397 35.6918 37.1573 35.1727C37.3749 34.6537 37.4318 34.0826 37.3209 33.5316C37.2099 32.9806 36.9361 32.4745 36.534 32.0772C36.1319 31.68 35.6196 31.4095 35.0619 31.2999C34.5042 31.1903 33.9261 31.2465 33.4008 31.4615C32.8754 31.6765 32.4264 32.0406 32.1105 32.5077C31.7945 32.9748 31.6259 33.524 31.6259 34.0858C31.6259 34.8391 31.9288 35.5616 32.468 36.0943C33.0072 36.6269 33.7385 36.9262 34.501 36.9262ZM30.1884 23.434C30.757 23.434 31.3129 23.2674 31.7857 22.9553C32.2585 22.6432 32.627 22.1996 32.8446 21.6806C33.0622 21.1615 33.1192 20.5904 33.0082 20.0394C32.8973 19.4884 32.6235 18.9823 32.2214 18.5851C31.8193 18.1878 31.307 17.9173 30.7493 17.8077C30.1916 17.6981 29.6135 17.7543 29.0881 17.9693C28.5628 18.1843 28.1137 18.5484 27.7978 19.0155C27.4819 19.4826 27.3133 20.0318 27.3133 20.5936C27.3133 21.3469 27.6162 22.0694 28.1554 22.6021C28.6946 23.1348 29.4259 23.434 30.1884 23.434ZM20.8443 32.6655C21.4129 32.6655 21.9688 32.4989 22.4416 32.1868C22.9144 31.8747 23.2829 31.4311 23.5006 30.9121C23.7182 30.393 23.7751 29.8219 23.6642 29.2709C23.5532 28.7199 23.2794 28.2138 22.8773 27.8166C22.4752 27.4193 21.9629 27.1488 21.4052 27.0392C20.8475 26.9296 20.2694 26.9858 19.7441 27.2008C19.2187 27.4158 18.7697 27.7799 18.4538 28.247C18.1378 28.7141 17.9692 29.2633 17.9692 29.8251C17.9692 30.5784 18.2721 31.3009 18.8113 31.8336C19.3505 32.3663 20.0818 32.6655 20.8443 32.6655Z" fill="#FF8C42"/>
</svg>
