<svg width="31" height="31" viewBox="0 0 31 31" fill="none" xmlns="http://www.w3.org/2000/svg">
<path d="M15.5 0C6.94019 0 0 6.94269 0 15.5C0 24.0623 6.94019 31 15.5 31C24.0598 31 31 24.0623 31 15.5C31 6.94269 24.0598 0 15.5 0ZM15.5 28C8.59175 28 3 22.4106 3 15.5C3 8.59406 8.592 3 15.5 3C22.4057 3 28 8.59194 28 15.5C28 22.4081 22.4106 28 15.5 28ZM22.2027 12.05C22.2027 16.2408 17.6764 16.3053 17.6764 17.8539V18.25C17.6764 18.6642 17.3406 19 16.9264 19H14.0735C13.6593 19 13.3235 18.6642 13.3235 18.25V17.7088C13.3235 15.4747 15.0173 14.5817 16.2972 13.8641C17.3948 13.2487 18.0674 12.8303 18.0674 12.0154C18.0674 10.9375 16.6925 10.2221 15.5809 10.2221C14.1316 10.2221 13.4626 10.9081 12.5221 12.0951C12.2685 12.4151 11.8058 12.4746 11.4804 12.2279L9.74144 10.9093C9.42225 10.6673 9.35075 10.2176 9.57619 9.88656C11.0529 7.71819 12.9338 6.5 15.8621 6.5C18.9291 6.5 22.2027 8.894 22.2027 12.05ZM18.125 22.5C18.125 23.9474 16.9474 25.125 15.5 25.125C14.0526 25.125 12.875 23.9474 12.875 22.5C12.875 21.0526 14.0526 19.875 15.5 19.875C16.9474 19.875 18.125 21.0526 18.125 22.5Z" fill="white"/>
</svg>
