<svg width="35" height="28" viewBox="0 0 35 28" fill="none" xmlns="http://www.w3.org/2000/svg">
<path d="M34.125 11.375H30.625V7.875C30.625 7.39375 30.2313 7 29.75 7H28C27.5187 7 27.125 7.39375 27.125 7.875V11.375H23.625C23.1437 11.375 22.75 11.7688 22.75 12.25V14C22.75 14.4812 23.1437 14.875 23.625 14.875H27.125V18.375C27.125 18.8563 27.5187 19.25 28 19.25H29.75C30.2313 19.25 30.625 18.8563 30.625 18.375V14.875H34.125C34.6063 14.875 35 14.4812 35 14V12.25C35 11.7688 34.6063 11.375 34.125 11.375ZM12.25 14C16.1164 14 19.25 10.8664 19.25 7C19.25 3.13359 16.1164 0 12.25 0C8.38359 0 5.25 3.13359 5.25 7C5.25 10.8664 8.38359 14 12.25 14ZM17.15 15.75H16.2367C15.0227 16.3078 13.6719 16.625 12.25 16.625C10.8281 16.625 9.48281 16.3078 8.26328 15.75H7.35C3.29219 15.75 0 19.0422 0 23.1V25.375C0 26.8242 1.17578 28 2.625 28H21.875C23.3242 28 24.5 26.8242 24.5 25.375V23.1C24.5 19.0422 21.2078 15.75 17.15 15.75Z" fill="white"/>
</svg>
