<svg width="40" height="46" viewBox="0 0 40 46" fill="none" xmlns="http://www.w3.org/2000/svg">
<path d="M20 22.8571C26.3125 22.8571 31.4286 17.741 31.4286 11.4286C31.4286 5.11607 26.3125 0 20 0C13.6875 0 8.57143 5.11607 8.57143 11.4286C8.57143 17.741 13.6875 22.8571 20 22.8571ZM28 25.7143H26.5089C24.5268 26.625 22.3214 27.1428 20 27.1428C17.6786 27.1428 15.4821 26.625 13.4911 25.7143H12C5.375 25.7143 0 31.0892 0 37.7142V41.4285C0 43.7946 1.91964 45.7142 4.28571 45.7142H35.7143C38.0804 45.7142 40 43.7946 40 41.4285V37.7142C40 31.0892 34.625 25.7143 28 25.7143Z" fill="#FF5B00"/>
</svg>
